<svg xmlns="http://www.w3.org/2000/svg" width="34" height="30" viewBox="0 0 34 30">
  <defs>
    <style>
      .cls-1 {
        fill: #fff;
        fill-rule: evenodd;
      }
    </style>
  </defs>
  <path id="R7" class="cls-1" d="M153.676,18.944h-1.59v4.7h1.539q2.847,0,2.847-2.39Q156.472,18.945,153.676,18.944Zm23.291,7.851V20.029c0-10.026-8.5-9.737-8.5-9.737h-15.72c-9.772,0-9.772,8.891-9.772,8.891V39.992s0.938-3.451,5.559-3.451h17.809C177.475,36.541,176.967,26.795,176.967,26.795Zm-20.906,5.337-3.975-5.521v5.521h-4.181V15.084h5.412a15.826,15.826,0,0,1,3.3.257,4.555,4.555,0,0,1,1.962.971,5.754,5.754,0,0,1,2.1,4.678,5.526,5.526,0,0,1-1.154,3.564,4.864,4.864,0,0,1-3.1,1.777l4.642,5.8h-5Zm16.6-13.7-6.027,13.7h-4.8l6.31-13.367H161.5V15.084h11.157v3.348Z" transform="translate(-142.969 -10)"/>
</svg>
